<?xml version="1.0" encoding="UTF-8"?>
<svg width="1440px" height="142px" viewBox="0 0 1440 142" version="1.1" xmlns="http://www.w3.org/2000/svg" xmlns:xlink="http://www.w3.org/1999/xlink">
    <title>cabecera</title>
    <defs>
        <linearGradient x1="3.21763114%" y1="49.5510084%" x2="95.312962%" y2="50.434889%" id="linearGradient-1">
            <stop stop-color="#600E7C" offset="0%"></stop>
            <stop stop-color="#1D0889" offset="100%"></stop>
        </linearGradient>
        <polygon id="path-2" points="0 142 1440 142 1440 0 0 0"></polygon>
    </defs>
    <g id="Page-1" stroke="none" stroke-width="1" fill="none" fill-rule="evenodd">
        <g id="cabecera">
            <g id="Group-837">
                <mask id="mask-3" fill="white">
                    <use xlink:href="#path-2"></use>
                </mask>
                <use id="Mask" fill="url(#linearGradient-1)" xlink:href="#path-2"></use>
                <g id="Group-576" opacity="0.542294457" style="mix-blend-mode: soft-light;" mask="url(#mask-3)">
                    <g transform="translate(-1.000000, -547.000000)">
                        <polygon id="Fill-1" fill="#989898" points="753 634.001243 695 667 695 601"></polygon>
                        <polygon id="Fill-2" fill="#8A8A8A" points="753 700 695 667 753 634"></polygon>
                        <polygon id="Fill-3" fill="#8F8F8F" points="753 634 695 601 753 568"></polygon>
                        <polygon id="Fill-4" fill="#A0A0A0" points="694 667 636 634.002486 694 601"></polygon>
                        <polygon id="Fill-5" fill="#737373" points="694 735 636 702.001243 694 669"></polygon>
                        <polygon id="Fill-6" fill="#7B7B7B" points="753 702 695 735 695 669"></polygon>
                        <polygon id="Fill-7" fill="#7B7B7B" points="811 666.998757 753 700 753 634"></polygon>
                        <polygon id="Fill-8" fill="#AAAAAA" points="811 667 753 634.002486 811 601"></polygon>
                        <polygon id="Fill-9" fill="#9C9C9C" points="811 600.998757 753 634 753 568"></polygon>
                        <polygon id="Fill-10" fill="#858585" points="753 568.001243 695 601 695 535"></polygon>
                        <polygon id="Fill-11" fill="#A0A0A0" points="694 601 636 568.002486 694 535"></polygon>
                        <polygon id="Fill-12" fill="#AFAFAF" points="694 600.998757 636 634 636 568"></polygon>
                        <polygon id="Fill-13" fill="#8F8F8F" points="694 666.998757 636 700 636 634"></polygon>
                        <polygon id="Fill-17" fill="#6F6F6F" points="811 735 753 702.001243 811 669"></polygon>
                        <polygon id="Fill-18" fill="#CACACA" points="867 634.001243 809 667 809 601"></polygon>
                        <polygon id="Fill-19" fill="#AAAAAA" points="811 601 753 568.002486 811 535"></polygon>
                        <polygon id="Fill-20" fill="#858585" points="811 535 753 568 753 502"></polygon>
                        <polygon id="Fill-21" fill="#454545" points="753 568 695 535.001243 753 502"></polygon>
                        <polygon id="Fill-22" fill="#989898" points="694 535 636 568 636 502"></polygon>
                        <polygon id="Fill-23" fill="#AFAFAF" points="636 634 578 601 636 568"></polygon>
                        <polygon id="Fill-24" fill="#949494" points="636 634.001243 578 667 578 601"></polygon>
                        <polygon id="Fill-25" fill="#8A8A8A" points="636 700 578 667 636 634"></polygon>
                        <polygon id="Fill-29" fill="#7B7B7B" points="867 702 809 735 809 669"></polygon>
                        <polygon id="Fill-30" fill="#858585" points="867 700 809 667 867 634"></polygon>
                        <polygon id="Fill-31" fill="#CFCFCF" points="867 634 809 601 867 568"></polygon>
                        <polygon id="Fill-32" fill="#D4D4D4" points="867 568.001243 809 601 809 535"></polygon>
                        <polygon id="Fill-36" fill="#8F8F8F" points="636 568 578 535.001243 636 502"></polygon>
                        <polygon id="Fill-37" fill="#AAAAAA" points="636 568.001243 578 601 578 535"></polygon>
                        <polygon id="Fill-38" fill="#949494" points="580 667 522 634.002486 580 601"></polygon>
                        <polygon id="Fill-39" fill="#6F6F6F" points="636 702 578 735 578 669"></polygon>
                        <polygon id="Fill-43" fill="#808080" points="925 666.998757 867 700 867 634"></polygon>
                        <polygon id="Fill-44" fill="#B4B4B4" points="925 667 867 634.002486 925 601"></polygon>
                        <polygon id="Fill-45" fill="#D4D4D4" points="925 600.998757 867 634 867 568"></polygon>
                        <polygon id="Fill-46" fill="#C0C0C0" points="867 568 809 535.001243 867 502"></polygon>
                        <polygon id="Fill-53" fill="#535353" points="580 601 522 568.002486 580 535"></polygon>
                        <polygon id="Fill-54" fill="#7B7B7B" points="580 600.998757 522 634 522 568"></polygon>
                        <polygon id="Fill-55" fill="#808080" points="580 666.998757 522 700 522 634"></polygon>
                        <polygon id="Fill-56" fill="#6F6F6F" points="580 735 522 702.001243 580 669"></polygon>
                        <polygon id="Fill-59" fill="#535353" points="925 735 867 702.001243 925 669"></polygon>
                        <polygon id="Fill-60" fill="#AAAAAA" points="984 634.001243 926 667 926 601"></polygon>
                        <polygon id="Fill-61" fill="#DDDDDD" points="925 601 867 568.002486 925 535"></polygon>
                        <polygon id="Fill-62" fill="#D4D4D4" points="925 535 867 568 867 502"></polygon>
                        <polygon id="Fill-70" fill="#3B3B3B" points="580 535 522 568 522 502"></polygon>
                        <polygon id="Fill-71" fill="#A0A0A0" points="521 634 463 601 521 568"></polygon>
                        <polygon id="Fill-72" fill="#8F8F8F" points="521 634.001243 463 667 463 601"></polygon>
                        <polygon id="Fill-73" fill="#6F6F6F" points="521 700 463 667 521 634"></polygon>
                        <polygon id="Fill-77" fill="#404040" points="984 702 926 735 926 669"></polygon>
                        <polygon id="Fill-78" fill="#6F6F6F" points="984 700 926 667 984 634"></polygon>
                        <polygon id="Fill-79" fill="#D9D9D9" points="984 634 926 601 984 568"></polygon>
                        <polygon id="Fill-80" fill="#D4D4D4" points="984 568.001243 926 601 926 535"></polygon>
                        <polygon id="Fill-90" fill="#808080" points="521 568 463 535.001243 521 502"></polygon>
                        <polygon id="Fill-91" fill="#A5A5A5" points="521 568.001243 463 601 463 535"></polygon>
                        <polygon id="Fill-92" fill="#777777" points="463 667 405 634.002486 463 601"></polygon>
                        <polygon id="Fill-93" fill="#4A4A4A" points="521 702 463 735 463 669"></polygon>
                        <polygon id="Fill-97" fill="#A0A0A0" points="1042 666.998757 984 700 984 634"></polygon>
                        <polygon id="Fill-98" fill="#C0C0C0" points="1042 667 984 634.002486 1042 601"></polygon>
                        <polygon id="Fill-99" fill="#CACACA" points="1042 600.998757 984 634 984 568"></polygon>
                        <polygon id="Fill-100" fill="#DDDDDD" points="984 568 926 535.001243 984 502"></polygon>
                        <polygon id="Fill-113" fill="#A5A5A5" points="463 601 405 568.002486 463 535"></polygon>
                        <polygon id="Fill-114" fill="#AFAFAF" points="463 600.998757 405 634 405 568"></polygon>
                        <polygon id="Fill-115" fill="#737373" points="463 666.998757 405 700 405 634"></polygon>
                        <polygon id="Fill-116" fill="#202020" points="463 735 405 702.001243 463 669"></polygon>
                        <polygon id="Fill-119" fill="#8F8F8F" points="1042 735 984 702.001243 1042 669"></polygon>
                        <polygon id="Fill-120" fill="#B8B8B8" points="1099 634.001243 1041 667 1041 601"></polygon>
                        <polygon id="Fill-121" fill="#B4B4B4" points="1042 601 984 568.002486 1042 535"></polygon>
                        <polygon id="Fill-122" fill="#AAAAAA" points="1042 535 984 568 984 502"></polygon>
                        <polygon id="Fill-136" fill="#B4B4B4" points="463 535 405 568 405 502"></polygon>
                        <polygon id="Fill-137" fill="#B8B8B8" points="405 634 347 601 405 568"></polygon>
                        <polygon id="Fill-138" fill="#A0A0A0" points="405 634.001243 347 667 347 601"></polygon>
                        <polygon id="Fill-139" fill="#AAAAAA" points="405 700 347 667 405 634"></polygon>
                        <polygon id="Fill-143" fill="#9C9C9C" points="1099 702 1041 735 1041 669"></polygon>
                        <polygon id="Fill-144" fill="#C0C0C0" points="1099 700 1041 667 1099 634"></polygon>
                        <polygon id="Fill-145" fill="#CFCFCF" points="1099 634 1041 601 1099 568"></polygon>
                        <polygon id="Fill-146" fill="#AFAFAF" points="1099 568.001243 1041 601 1041 535"></polygon>
                        <polygon id="Fill-162" fill="#B4B4B4" points="405 568 347 535.001243 405 502"></polygon>
                        <polygon id="Fill-163" fill="#C5C5C5" points="405 568.001243 347 601 347 535"></polygon>
                        <polygon id="Fill-164" fill="#AAAAAA" points="348 667 290 634.002486 348 601"></polygon>
                        <polygon id="Fill-165" fill="#808080" points="405 702 347 735 347 669"></polygon>
                        <polygon id="Fill-169" fill="#6A6A6A" points="1157 666.998757 1099 700 1099 634"></polygon>
                        <polygon id="Fill-170" fill="#AAAAAA" points="1157 667 1099 634.002486 1157 601"></polygon>
                        <polygon id="Fill-171" fill="#C0C0C0" points="1157 600.998757 1099 634 1099 568"></polygon>
                        <polygon id="Fill-172" fill="#AAAAAA" points="1099 568 1041 535.001243 1099 502"></polygon>
                        <polygon id="Fill-191" fill="#A5A5A5" points="348 601 290 568.002486 348 535"></polygon>
                        <polygon id="Fill-192" fill="#AAAAAA" points="348 600.998757 290 634 290 568"></polygon>
                        <polygon id="Fill-193" fill="#949494" points="348 666.998757 290 700 290 634"></polygon>
                        <polygon id="Fill-194" fill="#737373" points="348 735 290 702.001243 348 669"></polygon>
                        <polygon id="Fill-197" fill="#575757" points="1157 735 1099 702.001243 1157 669"></polygon>
                        <polygon id="Fill-198" fill="#858585" points="1216 634.001243 1158 667 1158 601"></polygon>
                        <polygon id="Fill-199" fill="#DDDDDD" points="1157 601 1099 568.002486 1157 535"></polygon>
                        <polygon id="Fill-200" fill="#EAEAEA" points="1157 535 1099 568 1099 502"></polygon>
                        <polygon id="Fill-220" fill="#7B7B7B" points="348 535 290 568 290 502"></polygon>
                        <polygon id="Fill-221" fill="#989898" points="289 634 231 601 289 568"></polygon>
                        <polygon id="Fill-222" fill="#949494" points="289 634.001243 231 667 231 601"></polygon>
                        <polygon id="Fill-223" fill="#777777" points="289 700 231 667 289 634"></polygon>
                        <polygon id="Fill-227" fill="#4F4F4F" points="1216 702 1158 735 1158 669"></polygon>
                        <polygon id="Fill-228" fill="#656565" points="1216 700 1158 667 1216 634"></polygon>
                        <polygon id="Fill-229" fill="#7B7B7B" points="1216 634 1158 601 1216 568"></polygon>
                        <polygon id="Fill-230" fill="#9C9C9C" points="1216 568.001243 1158 601 1158 535"></polygon>
                        <polygon id="Fill-252" fill="#8F8F8F" points="289 568 231 535.001243 289 502"></polygon>
                        <polygon id="Fill-253" fill="#A5A5A5" points="289 568.001243 231 601 231 535"></polygon>
                        <polygon id="Fill-254" fill="#AAAAAA" points="231 667 173 634.002486 231 601"></polygon>
                        <polygon id="Fill-255" fill="#5B5B5B" points="289 702 231 735 231 669"></polygon>
                        <polygon id="Fill-259" fill="#4A4A4A" points="1274 666.998757 1216 700 1216 634"></polygon>
                        <polygon id="Fill-260" fill="#858585" points="1274 667 1216 634.002486 1274 601"></polygon>
                        <polygon id="Fill-261" fill="#9C9C9C" points="1274 600.998757 1216 634 1216 568"></polygon>
                        <polygon id="Fill-262" fill="#8F8F8F" points="1216 568 1158 535.001243 1216 502"></polygon>
                        <polygon id="Fill-287" fill="#5B5B5B" points="231 601 173 568.002486 231 535"></polygon>
                        <polygon id="Fill-288" fill="#858585" points="231 600.998757 173 634 173 568"></polygon>
                        <polygon id="Fill-289" fill="#808080" points="231 666.998757 173 700 173 634"></polygon>
                        <polygon id="Fill-290" fill="#7B7B7B" points="231 735 173 702.001243 231 669"></polygon>
                        <polygon id="Fill-293" fill="#3B3B3B" points="1274 735 1216 702.001243 1274 669"></polygon>
                        <polygon id="Fill-294" fill="#808080" points="1330 634.001243 1272 667 1272 601"></polygon>
                        <polygon id="Fill-295" fill="#C0C0C0" points="1274 601 1216 568.002486 1274 535"></polygon>
                        <polygon id="Fill-296" fill="#808080" points="1274 535 1216 568 1216 502"></polygon>
                        <polygon id="Fill-322" fill="#1B1B1B" points="231 535 173 568 173 502"></polygon>
                        <polygon id="Fill-323" fill="#777777" points="173 634 115 601 173 568"></polygon>
                        <polygon id="Fill-324" fill="#6A6A6A" points="173 634.001243 115 667 115 601"></polygon>
                        <polygon id="Fill-325" fill="#535353" points="173 700 115 667 173 634"></polygon>
                        <polygon id="Fill-329" fill="#4A4A4A" points="1330 702 1272 735 1272 669"></polygon>
                        <polygon id="Fill-330" fill="#4F4F4F" points="1330 700 1272 667 1330 634"></polygon>
                        <polygon id="Fill-331" fill="#858585" points="1330 634 1272 601 1330 568"></polygon>
                        <polygon id="Fill-332" fill="#C0C0C0" points="1330 568.001243 1272 601 1272 535"></polygon>
                        <polygon id="Fill-360" fill="#050505" points="173 568 115 535.001243 173 502"></polygon>
                        <polygon id="Fill-361" fill="#373737" points="173 568.001243 115 601 115 535"></polygon>
                        <polygon id="Fill-362" fill="#656565" points="116 667 58 634.002486 116 601"></polygon>
                        <polygon id="Fill-363" fill="#252525" points="173 702 115 735 115 669"></polygon>
                        <polygon id="Fill-367" fill="#8F8F8F" points="1389 666.998757 1331 700 1331 634"></polygon>
                        <polygon id="Fill-368" fill="#9C9C9C" points="1389 667 1331 634.002486 1389 601"></polygon>
                        <polygon id="Fill-369" fill="#AAAAAA" points="1389 600.998757 1331 634 1331 568"></polygon>
                        <polygon id="Fill-370" fill="#D9D9D9" points="1330 568 1272 535.001243 1330 502"></polygon>
                        <polygon id="Fill-401" fill="#777777" points="116 601 58 568.002486 116 535"></polygon>
                        <polygon id="Fill-402" fill="#6F6F6F" points="116 600.998757 58 634 58 568"></polygon>
                        <polygon id="Fill-403" fill="#606060" points="116 666.998757 58 700 58 634"></polygon>
                        <polygon id="Fill-404" fill="#373737" points="116 735 58 702.001243 116 669"></polygon>
                        <polygon id="Fill-407" fill="#535353" points="1389 735 1331 702.001243 1389 669"></polygon>
                        <polygon id="Fill-408" fill="#737373" points="1389 667 1447 634.002486 1389 601"></polygon>
                        <polygon id="Fill-409" fill="#CACACA" points="1389 601 1331 568.002486 1389 535"></polygon>
                        <polygon id="Fill-410" fill="#989898" points="1389 535 1331 568 1331 502"></polygon>
                        <polygon id="Fill-442" fill="#606060" points="116 535 58 568 58 502"></polygon>
                        <polygon id="Fill-443" fill="#949494" points="0 600.997514 58 634 58 568"></polygon>
                        <polygon id="Fill-444" fill="#6F6F6F" points="0 667 58 634.002486 0 601"></polygon>
                        <polygon id="Fill-445" fill="#4A4A4A" points="0 666.997514 58 700 58 634"></polygon>
                        <polygon id="Fill-449" fill="#252525" points="1389 735 1447 702.001243 1389 669"></polygon>
                        <polygon id="Fill-450" fill="#4A4A4A" points="1389 666.997514 1447 700 1447 634"></polygon>
                        <polygon id="Fill-451" fill="#D9D9D9" points="1389 600.997514 1447 634 1447 568"></polygon>
                        <polygon id="Fill-452" fill="#EAEAEA" points="1389 601 1447 568.002486 1389 535"></polygon>
                        <polygon id="Fill-473" fill="#404040" points="0 534.998757 58 568 58 502"></polygon>
                        <polygon id="Fill-474" fill="#737373" points="0 601 58 568.002486 0 535"></polygon>
                        <polygon id="Fill-475" fill="#2F2F2F" points="0 735 58 702.001243 0 669"></polygon>
                        <polygon id="Fill-479" fill="#EFEFEF" points="1389 534.998757 1447 568 1447 502"></polygon>
                    </g>
                </g>
            </g>
        </g>
    </g>
</svg>