<?xml version="1.0" encoding="UTF-8"?>
<svg width="416px" height="79px" viewBox="0 0 416 79" version="1.1" xmlns="http://www.w3.org/2000/svg" xmlns:xlink="http://www.w3.org/1999/xlink">
    <title>logo_dao_analyzer</title>
    <defs>
        <polygon id="path-1" points="160.759766 16.3085938 137.451172 78.3339844 1.78479193e-14 78.3339844 0 0 160.759766 0"></polygon>
    </defs>
    <g id="Page-1" stroke="none" stroke-width="1" fill="none" fill-rule="evenodd">
        <g id="DAO-ANALYZER_v2_2" transform="translate(-512.000000, -1.000000)">
            <g id="logo_dao_analyzer" transform="translate(512.000000, 1.000000)">
                <g id="DAO">
                    <mask id="mask-2" fill="white">
                        <use xlink:href="#path-1"></use>
                    </mask>
                    <use id="Mask" fill-opacity="0" fill="#9F6060" xlink:href="#path-1"></use>
                    <path d="M58.9699219,64 C62.6699219,64 65.9115885,63.225 68.6949219,61.675 C71.4782552,60.125 73.6199219,58 75.1199219,55.3 C76.6199219,52.6 77.3699219,49.5666667 77.3699219,46.2 C77.3699219,42.8 76.6199219,39.7666667 75.1199219,37.1 C73.6199219,34.4333333 71.4782552,32.35 68.6949219,30.85 C65.9115885,29.35 62.6699219,28.6 58.9699219,28.6 L58.9699219,28.6 L44.2199219,28.6 L44.2199219,64 L58.9699219,64 Z M57.9699219,54.1 L55.3199219,54.1 L55.3199219,38.3 L57.9699219,38.3 C60.4699219,38.3 62.4532552,38.9833333 63.9199219,40.35 C65.3865885,41.7166667 66.1199219,43.6666667 66.1199219,46.2 C66.1199219,48.7333333 65.3865885,50.6833333 63.9199219,52.05 C62.4532552,53.4166667 60.4699219,54.1 57.9699219,54.1 L57.9699219,54.1 Z M90.5199219,64 L92.2699219,58.65 L104.069922,58.65 L105.819922,64 L117.519922,64 L104.619922,28.6 L91.8199219,28.6 L78.8699219,64 L90.5199219,64 Z M101.369922,50.3 L94.9699219,50.3 L98.1699219,40.45 L101.369922,50.3 Z M137.269922,64.35 C140.569922,64.35 143.611589,63.5666667 146.394922,62 C149.178255,60.4333333 151.378255,58.2666667 152.994922,55.5 C154.611589,52.7333333 155.419922,49.6166667 155.419922,46.15 C155.419922,42.6833333 154.611589,39.5666667 152.994922,36.8 C151.378255,34.0333333 149.186589,31.875 146.419922,30.325 C143.653255,28.775 140.603255,28 137.269922,28 C133.936589,28 130.878255,28.775 128.094922,30.325 C125.311589,31.875 123.103255,34.0333333 121.469922,36.8 C119.836589,39.5666667 119.019922,42.6833333 119.019922,46.15 C119.019922,49.6166667 119.836589,52.7333333 121.469922,55.5 C123.103255,58.2666667 125.311589,60.4333333 128.094922,62 C130.878255,63.5666667 133.936589,64.35 137.269922,64.35 Z M137.269922,54 C135.036589,54 133.319922,53.2916667 132.119922,51.875 C130.919922,50.4583333 130.319922,48.55 130.319922,46.15 C130.319922,43.7166667 130.919922,41.7916667 132.119922,40.375 C133.319922,38.9583333 135.036589,38.25 137.269922,38.25 C139.469922,38.25 141.169922,38.9583333 142.369922,40.375 C143.569922,41.7916667 144.169922,43.7166667 144.169922,46.15 C144.169922,48.55 143.569922,50.4583333 142.369922,51.875 C141.169922,53.2916667 139.469922,54 137.269922,54 Z" fill="#FFFFFF" fill-rule="nonzero" mask="url(#mask-2)"></path>
                </g>
                <path d="M157.719922,78 L159.469922,72.65 L171.269922,72.65 L173.019922,78 L184.719922,78 L171.819922,42.6 L159.019922,42.6 L146.069922,78 L157.719922,78 Z M168.569922,64.3 L162.169922,64.3 L165.369922,54.45 L168.569922,64.3 Z M198.319922,78 L198.319922,60.2 L210.069922,78 L221.169922,78 L221.169922,42.6 L210.069922,42.6 L210.069922,60.7 L198.319922,42.6 L187.219922,42.6 L187.219922,78 L198.319922,78 Z M235.319922,78 L237.069922,72.65 L248.869922,72.65 L250.619922,78 L262.319922,78 L249.419922,42.6 L236.619922,42.6 L223.669922,78 L235.319922,78 Z M246.169922,64.3 L239.769922,64.3 L242.969922,54.45 L246.169922,64.3 Z M286.619922,78 L286.619922,69.6 L275.919922,69.6 L275.919922,42.6 L264.819922,42.6 L264.819922,78 L286.619922,78 Z M311.419922,78 L311.419922,67.25 L324.119922,42.6 L311.619922,42.6 L305.969922,55.15 L300.319922,42.6 L287.619922,42.6 L300.319922,67.25 L300.319922,78 L311.419922,78 Z M353.119922,78 L353.119922,69.15 L338.919922,69.15 L353.119922,50.95 L353.119922,42.6 L326.619922,42.6 L326.619922,51.4 L340.619922,51.4 L326.619922,69.65 L326.619922,78 L353.119922,78 Z M381.719922,78 L381.719922,69.15 L369.219922,69.15 L369.219922,64.15 L380.219922,64.15 L380.219922,55.8 L369.219922,55.8 L369.219922,51.45 L381.719922,51.45 L381.719922,42.6 L358.119922,42.6 L358.119922,78 L381.719922,78 Z M397.019922,78 L397.019922,65.3 L397.069922,65.3 L403.719922,78 L415.919922,78 L408.219922,64.45 C410.686589,63.65 412.578255,62.3333333 413.894922,60.5 C415.211589,58.6666667 415.869922,56.5666667 415.869922,54.2 C415.869922,52 415.361589,50.025 414.344922,48.275 C413.328255,46.525 411.803255,45.1416667 409.769922,44.125 C407.736589,43.1083333 405.286589,42.6 402.419922,42.6 L402.419922,42.6 L385.919922,42.6 L385.919922,78 L397.019922,78 Z M401.419922,57.9 L397.019922,57.9 L397.019922,51.9 L401.419922,51.9 C402.453255,51.9 403.244922,52.1666667 403.794922,52.7 C404.344922,53.2333333 404.619922,53.9666667 404.619922,54.9 C404.619922,55.9333333 404.353255,56.6916667 403.819922,57.175 C403.286589,57.6583333 402.486589,57.9 401.419922,57.9 L401.419922,57.9 Z" id="ANALYZER" fill="#FFFFFF" fill-rule="nonzero"></path>
            </g>
        </g>
    </g>
</svg>