<?xml version="1.0" encoding="UTF-8"?>
<svg width="190px" height="59px" viewBox="0 0 190 59" version="1.1" xmlns="http://www.w3.org/2000/svg" xmlns:xlink="http://www.w3.org/1999/xlink">
    <title>logo</title>
    <defs>
        <path d="M4.38438188,1.38893513 C2.4649694,3.08646267 1.36146879,4.71990208 0.294051408,6.29894737 L0.294051408,6.29894737 C0.668347613,6.63823745 1.06795594,6.98829865 1.49233782,7.34859241 L1.49233782,7.34859241 C2.39172583,8.11172583 3.36812729,8.89047736 4.40861689,9.67730722 L4.40861689,9.67730722 C6.88651163,8.70252142 8.84847001,7.99378213 11.3328274,7.09654835 L11.3328274,7.09654835 C12.3620073,4.84161567 13.340563,3.61909425 14.2868054,2.4369645 L14.2868054,2.4369645 C13.5748348,1.89894737 12.9064871,1.36577723 12.290918,0.842839657 L12.290918,0.842839657 C12.0006365,0.596181151 11.7270502,0.357062424 11.4712362,0.12494492 L11.4712362,0.12494492 C8.44293758,0.524553244 6.28709914,0.983402693 4.38438188,1.38893513" id="path-1"></path>
        <linearGradient x1="-117.593652%" y1="-3.73254969%" x2="240.346079%" y2="107.934146%" id="linearGradient-3">
            <stop stop-color="#87F2E6" offset="0%"></stop>
            <stop stop-color="#2D36F2" offset="100%"></stop>
        </linearGradient>
        <path d="M2.86673195,3.25610771 C1.62105263,6.00435741 1.05179927,8.3077601 0.501395349,10.535765 L0.501395349,10.535765 C0.932778458,10.927295 1.39324357,11.3306732 1.8827907,11.7464382 L1.8827907,11.7464382 C2.9195104,12.6258996 4.04563035,13.5242105 5.24445532,14.4311383 L5.24445532,14.4311383 C7.62810282,12.9059486 9.68107711,11.8056793 11.8546879,10.6407834 L11.8546879,10.6407834 C12.4126316,7.48807834 13.0427417,5.53258262 13.6523868,3.64171359 L13.6523868,3.64171359 C12.5871236,2.83603427 11.5870257,2.03789474 10.6660955,1.25698898 L10.6660955,1.25698898 C10.2309425,0.88753978 9.8221787,0.528861689 9.43872705,0.181493268 L9.43872705,0.181493268 C6.4675153,1.33777234 4.55402693,2.35725826 2.86673195,3.25610771" id="path-4"></path>
        <linearGradient x1="-69.3772407%" y1="-9.96167467%" x2="255.009729%" y2="150.664055%" id="linearGradient-6">
            <stop stop-color="#87F2E6" offset="0%"></stop>
            <stop stop-color="#2D36F2" offset="100%"></stop>
        </linearGradient>
        <path d="M0.514859241,4.96871481 C0.299436965,8.12572827 0.508396573,10.4937576 0.710354957,12.7836965 L0.710354957,12.7836965 C1.10511628,13.141836 1.52626683,13.5112852 1.97434517,13.8915055 L1.97434517,13.8915055 C2.92274174,14.6961077 3.95353733,15.5184823 5.05057528,16.3483966 L5.05057528,16.3483966 C6.55637699,14.8269767 8.05463892,13.6809302 9.64122399,12.4670257 L9.64122399,12.4670257 C9.52866585,9.03265606 9.71931457,6.56876377 9.88734394,4.395153 L9.88734394,4.395153 C8.68636475,3.48607099 7.55862913,2.58722154 6.52029376,1.70614443 L6.52029376,1.70614443 C6.03020808,1.28984088 5.56866585,0.885924113 5.13674419,0.493855569 L5.13674419,0.493855569 C2.85434517,2.28940024 1.61189718,3.71334149 0.514859241,4.96871481" id="path-7"></path>
        <linearGradient x1="-14.5322044%" y1="0.770791467%" x2="174.03081%" y2="145.137756%" id="linearGradient-9">
            <stop stop-color="#87F2E6" offset="0%"></stop>
            <stop stop-color="#2D36F2" offset="100%"></stop>
        </linearGradient>
        <path d="M3.71818849,1.32269278 C2.68039168,2.20376989 1.5521175,3.10261934 0.351138311,4.01116279 L0.351138311,4.01116279 C0.519167687,6.18477356 0.709277846,8.64920441 0.596719706,12.0835741 L0.596719706,12.0835741 C2.18330477,13.2974786 3.68210526,14.4435251 5.18790698,15.9649449 L5.18790698,15.9649449 C6.28548348,15.134492 7.31520196,14.3131946 8.26413709,13.5080539 L8.26413709,13.5080539 C8.71221542,13.1278335 9.13336597,12.7578458 9.52866585,12.3997062 L9.52866585,12.3997062 C9.73008568,10.110306 9.93850673,7.74227662 9.72362301,4.58526316 L9.72362301,4.58526316 C8.62712362,3.32935129 7.38413709,1.90541004 5.10173807,0.110403917 L5.10173807,0.110403917 C4.6698164,0.501933905 4.20827417,0.906389229 3.71818849,1.32269278" id="path-10"></path>
        <linearGradient x1="-193.414112%" y1="27.9333503%" x2="56.6447657%" y2="50.579074%" id="linearGradient-12">
            <stop stop-color="#87F2E6" offset="0%"></stop>
            <stop stop-color="#2D36F2" offset="100%"></stop>
        </linearGradient>
        <path d="M0.108249694,4.43231334 C0.924700122,7.29150551 1.79069767,9.22599755 2.62869033,11.0964015 L2.62869033,11.0964015 C2.90550796,11.3473684 3.20063647,11.6064137 3.51461444,11.8729988 L3.51461444,11.8729988 C4.18026928,12.4379437 4.90247246,13.0136597 5.67206854,13.5958384 L5.67206854,13.5958384 C5.99735618,12.3366952 6.72117503,11.3726805 7.42129743,10.4409792 L7.42129743,10.4409792 C6.63985312,7.65233782 6.22947368,5.45880049 5.86756426,3.52376989 L5.86756426,3.52376989 C4.7926071,2.7105508 3.78335373,1.90541004 2.85380661,1.11642595 L2.85380661,1.11642595 C2.41488372,0.744283966 2.00181151,0.382913097 1.61512852,0.0317747858 L1.61512852,0.0317747858 C0.598873929,1.80362301 0.424381885,2.73747858 0.108249694,4.43231334" id="path-13"></path>
        <linearGradient x1="-28.6828984%" y1="-16.2856722%" x2="170.399063%" y2="152.458777%" id="linearGradient-15">
            <stop stop-color="#87F2E6" offset="0%"></stop>
            <stop stop-color="#2D36F2" offset="100%"></stop>
        </linearGradient>
        <path d="M0.714663403,3.51192166 C0.311823745,5.93057528 0.178261934,7.98893513 0.0360832313,10.1663158 L0.0360832313,10.1663158 C1.96626683,11.2708935 3.93091799,12.3356181 5.88587515,13.3351775 L5.88587515,13.3351775 C8.21405141,11.4841616 9.4904284,10.1873195 10.7258752,8.93302326 L10.7258752,8.93302326 C10.3294982,5.83255814 10.1970135,4.38922889 10.0295226,2.56137087 L10.0295226,2.56137087 C8.69121175,1.87740514 7.34697674,1.14873929 6.02589963,0.393145655 L6.02589963,0.393145655 C4.20396573,1.58712362 2.50913097,2.5220563 0.714663403,3.51192166" id="path-16"></path>
        <linearGradient x1="-200.737877%" y1="-90.7586043%" x2="118.914938%" y2="86.0966248%" id="linearGradient-18">
            <stop stop-color="#87F2E6" offset="0%"></stop>
            <stop stop-color="#2D36F2" offset="100%"></stop>
        </linearGradient>
        <path d="M0.327980416,3.90937576 C0.161028152,6.7130967 0.116328029,9.08974296 0.0657037944,11.8406854 L0.0657037944,11.8406854 C2.29047736,13.1138311 4.55510404,14.3411995 6.81003672,15.4937087 L6.81003672,15.4937087 C9.82110159,13.5037454 11.5008568,12.2499878 13.2797062,10.922448 L13.2797062,10.922448 C13.1542228,8.36861689 13.0088127,5.81640147 12.8784823,3.26257038 L12.8784823,3.26257038 C10.8755936,2.23931457 8.86354957,1.14873929 6.88651163,0.0177723378 L6.88651163,0.0177723378 C4.88362301,1.25375765 3.3449694,2.1526071 0.327980416,3.90937576" id="path-19"></path>
        <linearGradient x1="-164.071537%" y1="-65.0933265%" x2="112.262785%" y2="82.8050992%" id="linearGradient-21">
            <stop stop-color="#87F2E6" offset="0%"></stop>
            <stop stop-color="#2D36F2" offset="100%"></stop>
        </linearGradient>
        <path d="M0.390452876,4.19858017 C0.494394125,6.78634027 0.630110159,8.70252142 0.818604651,11.3559853 L0.818604651,11.3559853 C2.85434517,12.5208813 4.92724602,13.6437699 6.99045288,14.6982619 L6.99045288,14.6982619 C9.87711138,13.3104039 11.5751775,12.3883966 13.5414443,11.3199021 L13.5414443,11.3199021 C13.5856059,9.75647491 13.6028397,8.83231334 13.6378458,3.8603672 L13.6378458,3.8603672 C11.3796818,2.70624235 9.11128519,1.47779682 6.88328029,0.20249694 L6.88328029,0.20249694 C5.44479804,1.10188494 5.44479804,1.10188494 0.390452876,4.19858017" id="path-22"></path>
        <linearGradient x1="-187.428557%" y1="-68.4823072%" x2="128.334938%" y2="89.4164965%" id="linearGradient-24">
            <stop stop-color="#87F2E6" offset="0%"></stop>
            <stop stop-color="#2D36F2" offset="100%"></stop>
        </linearGradient>
        <path d="M0.354369645,3.29434517 C0.60372093,4.62350061 0.829375765,5.75231334 1.32376989,8.22482252 L1.32376989,8.22482252 C2.75094247,9.04235006 4.20396573,9.82917993 5.65052632,10.5686177 L5.65052632,10.5686177 C5.65268054,10.5691554 6.82188494,10.2998776 10.8922889,9.00034272 L10.8922889,9.00034272 C11.1136353,7.26996328 11.1486414,5.5778213 11.1858017,3.78712362 L11.1858017,3.78712362 C9.16514076,2.75363525 7.1347858,1.65390453 5.13997552,0.512705018 L5.13997552,0.512705018 C2.64107711,1.8924847 1.68190942,2.48058752 0.354369645,3.29434517" id="path-25"></path>
        <linearGradient x1="-286.338214%" y1="-91.2296674%" x2="176.072628%" y2="104.957135%" id="linearGradient-27">
            <stop stop-color="#87F2E6" offset="0%"></stop>
            <stop stop-color="#2D36F2" offset="100%"></stop>
        </linearGradient>
        <path d="M0.164259486,4.08548348 C0.0759363525,5.74261934 -0.00807833537,7.30766218 0.0613953488,8.88078335 L0.0613953488,8.88078335 C3.38482252,9.46350061 4.34722154,9.53405141 4.34883721,9.53351589 L4.34883721,9.53351589 C5.61067319,8.6249694 6.88166463,7.67172583 8.1327295,6.6947858 L8.1327295,6.6947858 C8.71275398,4.32244798 8.97718482,3.23995104 9.27608323,1.96734394 L9.27608323,1.96734394 C8.21835985,1.41532436 7.45361077,1.01625459 5.45179927,0.118482252 L5.45179927,0.118482252 C3.70310894,1.48372093 1.92802938,2.81610771 0.164259486,4.08548348" id="path-28"></path>
        <linearGradient x1="-624.14486%" y1="-208.387136%" x2="75.7381138%" y2="64.2733582%" id="linearGradient-30">
            <stop stop-color="#87F2E6" offset="0%"></stop>
            <stop stop-color="#2D36F2" offset="100%"></stop>
        </linearGradient>
        <path d="M2.00611995,3.14678091 C1.1169645,5.73184823 0.689889841,7.95500612 0.276817625,10.1059976 L0.276817625,10.1059976 C2.14829865,11.3990698 4.1398776,12.6937576 6.20200734,13.9615177 L6.20200734,13.9615177 C9.8270257,11.9026193 10.1630845,11.7044308 12.779388,10.163623 L12.779388,10.163623 C12.9899633,7.0970869 13.2958629,5.26168911 13.5920685,3.48607099 L13.5920685,3.48607099 C11.9580906,2.48166463 10.3811995,1.45625459 8.89855569,0.431921665 L8.89855569,0.431921665 C5.53365973,1.71799266 4.4280049,2.16553244 2.00611995,3.14678091" id="path-31"></path>
        <linearGradient x1="-161.735369%" y1="-50.3989125%" x2="202.594124%" y2="118.776002%" id="linearGradient-33">
            <stop stop-color="#87F2E6" offset="0%"></stop>
            <stop stop-color="#2D36F2" offset="100%"></stop>
        </linearGradient>
        <path d="M5.23368421,2.39926561 C2.97875153,4.25566707 2.05189718,5.44641371 0.368910649,7.6076377 L0.368910649,7.6076377 C0.78252142,8.37561812 1.45625459,9.2728519 2.39549572,10.2901836 L2.39549572,10.2901836 C4.82599755,8.93787026 6.92259486,8.10310894 8.94971848,7.2952754 L8.94971848,7.2952754 C10.4382864,4.95255814 11.4023011,4.03485924 13.1520685,2.36964504 L13.1520685,2.36964504 C12.4077846,1.56342717 11.8735373,0.853072215 11.546634,0.244504284 L11.546634,0.244504284 C8.73106487,0.934394125 6.87304774,1.7126071 5.23368421,2.39926561" id="path-34"></path>
        <linearGradient x1="-65.7797847%" y1="7.82844014%" x2="326.028999%" y2="148.537318%" id="linearGradient-36">
            <stop stop-color="#87F2E6" offset="0%"></stop>
            <stop stop-color="#2D36F2" offset="100%"></stop>
        </linearGradient>
        <path d="M1.77777234,0.368372093 C1.45033048,0.976401469 0.916621787,1.68729498 0.172337821,2.49351285 L0.172337821,2.49351285 C1.92210526,4.15872705 2.8855814,5.07642595 4.37468788,7.41860465 L4.37468788,7.41860465 C6.40181151,8.22643819 8.49787026,9.06173807 10.9289106,10.4140514 L10.9289106,10.4140514 C11.8686903,9.39671971 12.5424235,8.49894737 12.9554957,7.73150551 L12.9554957,7.73150551 C11.2725092,5.57028152 10.3456548,4.37953488 8.09072215,2.52313341 L8.09072215,2.52313341 C6.45189718,1.83647491 4.59334149,1.05826193 1.77777234,0.368372093 Z" id="path-37"></path>
        <linearGradient x1="-417.19504%" y1="30.2235705%" x2="102.410956%" y2="52.2956818%" id="linearGradient-39">
            <stop stop-color="#87F2E6" offset="0%"></stop>
            <stop stop-color="#2D36F2" offset="100%"></stop>
        </linearGradient>
        <path d="M2.84572827,4.43931457 C1.4621787,7.32758874 0.906389229,9.59706242 0.368372093,11.7916769 L0.368372093,11.7916769 C0.792753978,12.5801224 1.48479804,13.5026683 2.44988984,14.5474663 L2.44988984,14.5474663 C3.97777234,12.6285924 5.55735618,11.3048225 7.08577723,10.0252142 L7.08577723,10.0252142 C7.80421053,6.78095471 8.66805386,4.7220563 9.50443084,2.73101591 L9.50443084,2.73101591 C8.55280294,1.70129743 7.87099143,0.792753978 7.4519951,0.0150795594 L7.4519951,0.0150795594 C5.23691554,1.63936353 4.02085679,3.06276622 2.84572827,4.43931457" id="path-40"></path>
        <linearGradient x1="3.87854572%" y1="16.4274003%" x2="220.549197%" y2="173.928763%" id="linearGradient-42">
            <stop stop-color="#87F2E6" offset="0%"></stop>
            <stop stop-color="#2D36F2" offset="100%"></stop>
        </linearGradient>
        <path d="M0.317209302,4.01439412 C0.766364749,6.90051408 1.26937576,8.9604896 1.75623011,10.9536842 L1.75623011,10.9536842 C3.3169645,12.0318727 4.97787026,13.1116769 6.69747858,14.1688617 L6.69747858,14.1688617 C8.19412485,13.1628397 9.70315789,12.2839168 11.4502326,11.2660465 L11.4502326,11.2660465 C11.164798,8.00832313 11.0829376,6.54937576 10.9482987,4.13072215 L10.9482987,4.13072215 C8.84954712,2.83980416 6.82296206,1.5230355 4.91809058,0.20626683 L4.91809058,0.20626683 C2.63246022,1.86932681 1.45571603,2.95990208 0.317209302,4.01439412" id="path-43"></path>
        <linearGradient x1="-103.183308%" y1="-37.5447543%" x2="182.835288%" y2="126.383363%" id="linearGradient-45">
            <stop stop-color="#87F2E6" offset="0%"></stop>
            <stop stop-color="#2D36F2" offset="100%"></stop>
        </linearGradient>
        <path d="M0.00753977968,5.64837209 C0.00269277846,5.87725826 0,6.10129743 0,6.32102815 L0,6.32102815 L0,6.35495716 C0.00161566707,9.0127295 0.334443084,11.0333905 0.656499388,12.9926561 L0.656499388,12.9926561 C1.00117503,13.6324602 1.56342717,14.3815912 2.3470257,15.2298164 L2.3470257,15.2298164 L2.3470257,15.230355 C2.57106487,13.3265606 3.22002448,11.9947124 3.84798042,10.7070257 L3.84798042,10.7070257 C3.46022032,7.46168911 3.54638923,5.05596083 3.62286414,2.93405141 L3.62286414,2.93405141 C2.66692778,1.89840881 1.98080783,0.985556916 1.56073439,0.203574051 L1.56073439,0.203574051 C0.550403917,2.34864137 0.274124847,4.02570379 0.00753977968,5.64837209" id="path-46"></path>
        <linearGradient x1="29.7527535%" y1="13.7753552%" x2="115.105389%" y2="166.095101%" id="linearGradient-48">
            <stop stop-color="#87F2E6" offset="0%"></stop>
            <stop stop-color="#2D36F2" offset="100%"></stop>
        </linearGradient>
        <path d="M0.61126071,4.81791922 C0.604259486,8.17419829 0.539094247,10.5659241 0.490624235,12.3124602 L0.490624235,12.3124602 C2.67608323,13.3378703 4.81845777,14.2711873 6.86550796,15.0838678 L6.86550796,15.0838678 L6.86550796,15.0844064 C9.80548348,13.3136353 11.7647491,11.7706732 13.4940514,10.4086659 L13.4940514,10.4086659 C13.6189963,7.6027907 13.4956671,5.33062424 13.3653366,2.92543452 L13.3653366,2.92543452 C11.3473684,2.12406365 9.23730722,1.20421053 7.08308446,0.193880049 L7.08308446,0.193880049 C4.74090575,2.02227662 2.7347858,3.38051408 0.61126071,4.81791922" id="path-49"></path>
        <linearGradient x1="-240.590507%" y1="-101.297684%" x2="54.3149874%" y2="52.4149416%" id="linearGradient-51">
            <stop stop-color="#87F2E6" offset="0%"></stop>
            <stop stop-color="#2D36F2" offset="100%"></stop>
        </linearGradient>
        <path d="M0.710893513,3.80866585 C0.641419829,6.38619339 0.466927785,7.7449694 0.298898409,9.05904529 L0.298898409,9.05904529 C2.07343941,9.89165239 3.81189718,10.6494002 5.47388005,11.3096701 L5.47388005,11.3096701 C5.48141983,11.3102081 7.24411261,10.9267564 12.3787026,8.87324357 L12.3787026,8.87324357 C13.0459731,6.9075153 13.330869,5.04895961 13.6066095,3.25072215 L13.6066095,3.25072215 C11.5784088,2.44504284 9.45703794,1.52088127 7.29150551,0.504626683 L7.29150551,0.504626683 C4.74359853,1.89948592 2.78433293,2.82687882 0.710893513,3.80866585" id="path-52"></path>
        <linearGradient x1="-306.022833%" y1="-80.5703171%" x2="70.3426095%" y2="59.0790791%" id="linearGradient-54">
            <stop stop-color="#87F2E6" offset="0%"></stop>
            <stop stop-color="#2D36F2" offset="100%"></stop>
        </linearGradient>
    </defs>
    <g id="Page-1" stroke="none" stroke-width="1" fill="none" fill-rule="evenodd">
        <g id="Desktop-HD" transform="translate(-62.000000, -30.000000)">
            <g id="logo" transform="translate(62.000000, 30.000000)">
                <text id="DAO" font-family="Bungee-Regular, Bungee" font-size="29" font-weight="normal" fill="#74CAE8">
                    <tspan x="69.7674419" y="30.3372093">DAO</tspan>
                </text>
                <text id="ANALYZER" font-family="Bungee-Regular, Bungee" font-size="21" font-weight="normal" fill="#74CAE8">
                    <tspan x="69.7674419" y="49.4534884">ANALYZER</tspan>
                </text>
                <g id="Group-57" style="mix-blend-mode: screen;">
                    <g id="Group-3" transform="translate(19.388005, 3.401518)">
                        <mask id="mask-2" fill="white">
                            <use xlink:href="#path-1"></use>
                        </mask>
                        <g id="Clip-2"></g>
                        <path d="M4.38438188,1.38893513 C2.4649694,3.08646267 1.36146879,4.71990208 0.294051408,6.29894737 L0.294051408,6.29894737 C0.668347613,6.63823745 1.06795594,6.98829865 1.49233782,7.34859241 L1.49233782,7.34859241 C2.39172583,8.11172583 3.36812729,8.89047736 4.40861689,9.67730722 L4.40861689,9.67730722 C6.88651163,8.70252142 8.84847001,7.99378213 11.3328274,7.09654835 L11.3328274,7.09654835 C12.3620073,4.84161567 13.340563,3.61909425 14.2868054,2.4369645 L14.2868054,2.4369645 C13.5748348,1.89894737 12.9064871,1.36577723 12.290918,0.842839657 L12.290918,0.842839657 C12.0006365,0.596181151 11.7270502,0.357062424 11.4712362,0.12494492 L11.4712362,0.12494492 C8.44293758,0.524553244 6.28709914,0.983402693 4.38438188,1.38893513" id="Fill-1" fill="url(#linearGradient-3)" mask="url(#mask-2)"></path>
                    </g>
                    <g id="Group-6" transform="translate(9.155447, 10.402742)">
                        <mask id="mask-5" fill="white">
                            <use xlink:href="#path-4"></use>
                        </mask>
                        <g id="Clip-5"></g>
                        <path d="M2.86673195,3.25610771 C1.62105263,6.00435741 1.05179927,8.3077601 0.501395349,10.535765 L0.501395349,10.535765 C0.932778458,10.927295 1.39324357,11.3306732 1.8827907,11.7464382 L1.8827907,11.7464382 C2.9195104,12.6258996 4.04563035,13.5242105 5.24445532,14.4311383 L5.24445532,14.4311383 C7.62810282,12.9059486 9.68107711,11.8056793 11.8546879,10.6407834 L11.8546879,10.6407834 C12.4126316,7.48807834 13.0427417,5.53258262 13.6523868,3.64171359 L13.6523868,3.64171359 C12.5871236,2.83603427 11.5870257,2.03789474 10.6660955,1.25698898 L10.6660955,1.25698898 C10.2309425,0.88753978 9.8221787,0.528861689 9.43872705,0.181493268 L9.43872705,0.181493268 C6.4675153,1.33777234 4.55402693,2.35725826 2.86673195,3.25610771" id="Fill-4" fill="url(#linearGradient-6)" mask="url(#mask-5)"></path>
                    </g>
                    <g id="Group-9" transform="translate(3.769890, 21.712411)">
                        <mask id="mask-8" fill="white">
                            <use xlink:href="#path-7"></use>
                        </mask>
                        <g id="Clip-8"></g>
                        <path d="M0.514859241,4.96871481 C0.299436965,8.12572827 0.508396573,10.4937576 0.710354957,12.7836965 L0.710354957,12.7836965 C1.10511628,13.141836 1.52626683,13.5112852 1.97434517,13.8915055 L1.97434517,13.8915055 C2.92274174,14.6961077 3.95353733,15.5184823 5.05057528,16.3483966 L5.05057528,16.3483966 C6.55637699,14.8269767 8.05463892,13.6809302 9.64122399,12.4670257 L9.64122399,12.4670257 C9.52866585,9.03265606 9.71931457,6.56876377 9.88734394,4.395153 L9.88734394,4.395153 C8.68636475,3.48607099 7.55862913,2.58722154 6.52029376,1.70614443 L6.52029376,1.70614443 C6.03020808,1.28984088 5.56866585,0.885924113 5.13674419,0.493855569 L5.13674419,0.493855569 C2.85434517,2.28940024 1.61189718,3.71334149 0.514859241,4.96871481" id="Fill-7" fill="url(#linearGradient-9)" mask="url(#mask-8)"></path>
                    </g>
                    <g id="Group-12" transform="translate(51.162791, 16.865410)">
                        <mask id="mask-11" fill="white">
                            <use xlink:href="#path-10"></use>
                        </mask>
                        <g id="Clip-11"></g>
                        <path d="M3.71818849,1.32269278 C2.68039168,2.20376989 1.5521175,3.10261934 0.351138311,4.01116279 L0.351138311,4.01116279 C0.519167687,6.18477356 0.709277846,8.64920441 0.596719706,12.0835741 L0.596719706,12.0835741 C2.18330477,13.2974786 3.68210526,14.4435251 5.18790698,15.9649449 L5.18790698,15.9649449 C6.28548348,15.134492 7.31520196,14.3131946 8.26413709,13.5080539 L8.26413709,13.5080539 C8.71221542,13.1278335 9.13336597,12.7578458 9.52866585,12.3997062 L9.52866585,12.3997062 C9.73008568,10.110306 9.93850673,7.74227662 9.72362301,4.58526316 L9.72362301,4.58526316 C8.62712362,3.32935129 7.38413709,1.90541004 5.10173807,0.110403917 L5.10173807,0.110403917 C4.6698164,0.501933905 4.20827417,0.906389229 3.71818849,1.32269278" id="Fill-10" fill="url(#linearGradient-12)" mask="url(#mask-11)"></path>
                    </g>
                    <g id="Group-15" transform="translate(2.692778, 35.714859)">
                        <mask id="mask-14" fill="white">
                            <use xlink:href="#path-13"></use>
                        </mask>
                        <g id="Clip-14"></g>
                        <path d="M0.108249694,4.43231334 C0.924700122,7.29150551 1.79069767,9.22599755 2.62869033,11.0964015 L2.62869033,11.0964015 C2.90550796,11.3473684 3.20063647,11.6064137 3.51461444,11.8729988 L3.51461444,11.8729988 C4.18026928,12.4379437 4.90247246,13.0136597 5.67206854,13.5958384 L5.67206854,13.5958384 C5.99735618,12.3366952 6.72117503,11.3726805 7.42129743,10.4409792 L7.42129743,10.4409792 C6.63985312,7.65233782 6.22947368,5.45880049 5.86756426,3.52376989 L5.86756426,3.52376989 C4.7926071,2.7105508 3.78335373,1.90541004 2.85380661,1.11642595 L2.85380661,1.11642595 C2.41488372,0.744283966 2.00181151,0.382913097 1.61512852,0.0317747858 L1.61512852,0.0317747858 C0.598873929,1.80362301 0.424381885,2.73747858 0.108249694,4.43231334" id="Fill-13" fill="url(#linearGradient-15)" mask="url(#mask-14)"></path>
                    </g>
                    <g id="Group-18" transform="translate(36.083231, 10.941297)">
                        <mask id="mask-17" fill="white">
                            <use xlink:href="#path-16"></use>
                        </mask>
                        <g id="Clip-17"></g>
                        <path d="M0.714663403,3.51192166 C0.311823745,5.93057528 0.178261934,7.98893513 0.0360832313,10.1663158 L0.0360832313,10.1663158 C1.96626683,11.2708935 3.93091799,12.3356181 5.88587515,13.3351775 L5.88587515,13.3351775 C8.21405141,11.4841616 9.4904284,10.1873195 10.7258752,8.93302326 L10.7258752,8.93302326 C10.3294982,5.83255814 10.1970135,4.38922889 10.0295226,2.56137087 L10.0295226,2.56137087 C8.69121175,1.87740514 7.34697674,1.14873929 6.02589963,0.393145655 L6.02589963,0.393145655 C4.20396573,1.58712362 2.50913097,2.5220563 0.714663403,3.51192166" id="Fill-16" fill="url(#linearGradient-18)" mask="url(#mask-17)"></path>
                    </g>
                    <g id="Group-21" transform="translate(28.543452, 22.250967)">
                        <mask id="mask-20" fill="white">
                            <use xlink:href="#path-19"></use>
                        </mask>
                        <g id="Clip-20"></g>
                        <path d="M0.327980416,3.90937576 C0.161028152,6.7130967 0.116328029,9.08974296 0.0657037944,11.8406854 L0.0657037944,11.8406854 C2.29047736,13.1138311 4.55510404,14.3411995 6.81003672,15.4937087 L6.81003672,15.4937087 C9.82110159,13.5037454 11.5008568,12.2499878 13.2797062,10.922448 L13.2797062,10.922448 C13.1542228,8.36861689 13.0088127,5.81640147 12.8784823,3.26257038 L12.8784823,3.26257038 C10.8755936,2.23931457 8.86354957,1.14873929 6.88651163,0.0177723378 L6.88651163,0.0177723378 C4.88362301,1.25375765 3.3449694,2.1526071 0.327980416,3.90937576" id="Fill-19" fill="url(#linearGradient-21)" mask="url(#mask-20)"></path>
                    </g>
                    <g id="Group-24" transform="translate(21.003672, 35.176304)">
                        <mask id="mask-23" fill="white">
                            <use xlink:href="#path-22"></use>
                        </mask>
                        <g id="Clip-23"></g>
                        <path d="M0.390452876,4.19858017 C0.494394125,6.78634027 0.630110159,8.70252142 0.818604651,11.3559853 L0.818604651,11.3559853 C2.85434517,12.5208813 4.92724602,13.6437699 6.99045288,14.6982619 L6.99045288,14.6982619 C9.87711138,13.3104039 11.5751775,12.3883966 13.5414443,11.3199021 L13.5414443,11.3199021 C13.5856059,9.75647491 13.6028397,8.83231334 13.6378458,3.8603672 L13.6378458,3.8603672 C11.3796818,2.70624235 9.11128519,1.47779682 6.88328029,0.20249694 L6.88328029,0.20249694 C5.44479804,1.10188494 5.44479804,1.10188494 0.390452876,4.19858017" id="Fill-22" fill="url(#linearGradient-24)" mask="url(#mask-23)"></path>
                    </g>
                    <g id="Group-27" transform="translate(16.156671, 47.024529)">
                        <mask id="mask-26" fill="white">
                            <use xlink:href="#path-25"></use>
                        </mask>
                        <g id="Clip-26"></g>
                        <path d="M0.354369645,3.29434517 C0.60372093,4.62350061 0.829375765,5.75231334 1.32376989,8.22482252 L1.32376989,8.22482252 C2.75094247,9.04235006 4.20396573,9.82917993 5.65052632,10.5686177 L5.65052632,10.5686177 C5.65268054,10.5691554 6.82188494,10.2998776 10.8922889,9.00034272 L10.8922889,9.00034272 C11.1136353,7.26996328 11.1486414,5.5778213 11.1858017,3.78712362 L11.1858017,3.78712362 C9.16514076,2.75363525 7.1347858,1.65390453 5.13997552,0.512705018 L5.13997552,0.512705018 C2.64107711,1.8924847 1.68190942,2.48058752 0.354369645,3.29434517" id="Fill-25" fill="url(#linearGradient-27)" mask="url(#mask-26)"></path>
                    </g>
                    <g id="Group-30" transform="translate(51.701346, 44.331750)">
                        <mask id="mask-29" fill="white">
                            <use xlink:href="#path-28"></use>
                        </mask>
                        <g id="Clip-29"></g>
                        <path d="M0.164259486,4.08548348 C0.0759363525,5.74261934 -0.00807833537,7.30766218 0.0613953488,8.88078335 L0.0613953488,8.88078335 C3.38482252,9.46350061 4.34722154,9.53405141 4.34883721,9.53351589 L4.34883721,9.53351589 C5.61067319,8.6249694 6.88166463,7.67172583 8.1327295,6.6947858 L8.1327295,6.6947858 C8.71275398,4.32244798 8.97718482,3.23995104 9.27608323,1.96734394 L9.27608323,1.96734394 C8.21835985,1.41532436 7.45361077,1.01625459 5.45179927,0.118482252 L5.45179927,0.118482252 C3.70310894,1.48372093 1.92802938,2.81610771 0.164259486,4.08548348" id="Fill-28" fill="url(#linearGradient-30)" mask="url(#mask-29)"></path>
                    </g>
                    <g id="Group-33" transform="translate(22.080783, 10.941297)">
                        <mask id="mask-32" fill="white">
                            <use xlink:href="#path-31"></use>
                        </mask>
                        <g id="Clip-32"></g>
                        <path d="M2.00611995,3.14678091 C1.1169645,5.73184823 0.689889841,7.95500612 0.276817625,10.1059976 L0.276817625,10.1059976 C2.14829865,11.3990698 4.1398776,12.6937576 6.20200734,13.9615177 L6.20200734,13.9615177 C9.8270257,11.9026193 10.1630845,11.7044308 12.779388,10.163623 L12.779388,10.163623 C12.9899633,7.0970869 13.2958629,5.26168911 13.5920685,3.48607099 L13.5920685,3.48607099 C11.9580906,2.48166463 10.3811995,1.45625459 8.89855569,0.431921665 L8.89855569,0.431921665 C5.53365973,1.71799266 4.4280049,2.16553244 2.00611995,3.14678091" id="Fill-31" fill="url(#linearGradient-33)" mask="url(#mask-32)"></path>
                    </g>
                    <g id="Group-36" transform="translate(9.694002, 2.324406)">
                        <mask id="mask-35" fill="white">
                            <use xlink:href="#path-34"></use>
                        </mask>
                        <g id="Clip-35"></g>
                        <path d="M5.23368421,2.39926561 C2.97875153,4.25566707 2.05189718,5.44641371 0.368910649,7.6076377 L0.368910649,7.6076377 C0.78252142,8.37561812 1.45625459,9.2728519 2.39549572,10.2901836 L2.39549572,10.2901836 C4.82599755,8.93787026 6.92259486,8.10310894 8.94971848,7.2952754 L8.94971848,7.2952754 C10.4382864,4.95255814 11.4023011,4.03485924 13.1520685,2.36964504 L13.1520685,2.36964504 C12.4077846,1.56342717 11.8735373,0.853072215 11.546634,0.244504284 L11.546634,0.244504284 C8.73106487,0.934394125 6.87304774,1.7126071 5.23368421,2.39926561" id="Fill-34" fill="url(#linearGradient-36)" mask="url(#mask-35)"></path>
                    </g>
                    <g id="Group-39" transform="translate(45.777234, 0.170184)">
                        <mask id="mask-38" fill="white">
                            <use xlink:href="#path-37"></use>
                        </mask>
                        <g id="Clip-38"></g>
                        <path d="M1.77777234,0.368372093 C1.45033048,0.976401469 0.916621787,1.68729498 0.172337821,2.49351285 L0.172337821,2.49351285 C1.92210526,4.15872705 2.8855814,5.07642595 4.37468788,7.41860465 L4.37468788,7.41860465 C6.40181151,8.22643819 8.49787026,9.06173807 10.9289106,10.4140514 L10.9289106,10.4140514 C11.8686903,9.39671971 12.5424235,8.49894737 12.9554957,7.73150551 L12.9554957,7.73150551 C11.2725092,5.57028152 10.3456548,4.37953488 8.09072215,2.52313341 L8.09072215,2.52313341 C6.45189718,1.83647491 4.59334149,1.05826193 1.77777234,0.368372093 Z" id="Fill-37" fill="url(#linearGradient-39)" mask="url(#mask-38)"></path>
                    </g>
                    <path d="M20.7008421,38.1122399 C18.582164,36.8094737 16.5367295,35.4797797 14.6140857,34.1517013 C14.5957748,31.5887148 14.5801567,29.3757895 14.9113684,26.0642105 C16.8060073,24.8810037 18.4421395,23.858825 21.5156769,22.2097674 C23.4108543,23.5195349 25.4266683,24.8298409 27.5146487,26.1137576 C27.3735471,28.554492 27.2717601,30.3188005 27.202825,34.0698409 C25.0372925,35.42 22.8642203,36.7583109 20.7008421,38.1122399" id="Fill-40" fill="#87F2E7"></path>
                    <g id="Group-44" transform="translate(1.615667, 10.941297)">
                        <mask id="mask-41" fill="white">
                            <use xlink:href="#path-40"></use>
                        </mask>
                        <g id="Clip-43"></g>
                        <path d="M2.84572827,4.43931457 C1.4621787,7.32758874 0.906389229,9.59706242 0.368372093,11.7916769 L0.368372093,11.7916769 C0.792753978,12.5801224 1.48479804,13.5026683 2.44988984,14.5474663 L2.44988984,14.5474663 C3.97777234,12.6285924 5.55735618,11.3048225 7.08577723,10.0252142 L7.08577723,10.0252142 C7.80421053,6.78095471 8.66805386,4.7220563 9.50443084,2.73101591 L9.50443084,2.73101591 C8.55280294,1.70129743 7.87099143,0.792753978 7.4519951,0.0150795594 L7.4519951,0.0150795594 C5.23691554,1.63936353 4.02085679,3.06276622 2.84572827,4.43931457" id="Fill-42" fill="url(#linearGradient-42)" mask="url(#mask-41)"></path>
                    </g>
                    <g id="Group-47" transform="translate(9.155447, 35.176304)">
                        <mask id="mask-44" fill="white">
                            <use xlink:href="#path-43"></use>
                        </mask>
                        <g id="Clip-46"></g>
                        <path d="M0.317209302,4.01439412 C0.766364749,6.90051408 1.26937576,8.9604896 1.75623011,10.9536842 L1.75623011,10.9536842 C3.3169645,12.0318727 4.97787026,13.1116769 6.69747858,14.1688617 L6.69747858,14.1688617 C8.19412485,13.1628397 9.70315789,12.2839168 11.4502326,11.2660465 L11.4502326,11.2660465 C11.164798,8.00832313 11.0829376,6.54937576 10.9482987,4.13072215 L10.9482987,4.13072215 C8.84954712,2.83980416 6.82296206,1.5230355 4.91809058,0.20626683 L4.91809058,0.20626683 C2.63246022,1.86932681 1.45571603,2.95990208 0.317209302,4.01439412" id="Fill-45" fill="url(#linearGradient-45)" mask="url(#mask-44)"></path>
                    </g>
                    <g id="Group-50" transform="translate(0.000000, 23.866634)">
                        <mask id="mask-47" fill="white">
                            <use xlink:href="#path-46"></use>
                        </mask>
                        <g id="Clip-49"></g>
                        <path d="M0.00753977968,5.64837209 C0.00269277846,5.87725826 0,6.10129743 0,6.32102815 L0,6.32102815 L0,6.35495716 C0.00161566707,9.0127295 0.334443084,11.0333905 0.656499388,12.9926561 L0.656499388,12.9926561 C1.00117503,13.6324602 1.56342717,14.3815912 2.3470257,15.2298164 L2.3470257,15.2298164 L2.3470257,15.230355 C2.57106487,13.3265606 3.22002448,11.9947124 3.84798042,10.7070257 L3.84798042,10.7070257 C3.46022032,7.46168911 3.54638923,5.05596083 3.62286414,2.93405141 L3.62286414,2.93405141 C2.66692778,1.89840881 1.98080783,0.985556916 1.56073439,0.203574051 L1.56073439,0.203574051 C0.550403917,2.34864137 0.274124847,4.02570379 0.00753977968,5.64837209" id="Fill-48" fill="url(#linearGradient-48)" mask="url(#mask-47)"></path>
                    </g>
                    <g id="Group-53" transform="translate(35.544676, 34.099192)">
                        <mask id="mask-50" fill="white">
                            <use xlink:href="#path-49"></use>
                        </mask>
                        <g id="Clip-52"></g>
                        <path d="M0.61126071,4.81791922 C0.604259486,8.17419829 0.539094247,10.5659241 0.490624235,12.3124602 L0.490624235,12.3124602 C2.67608323,13.3378703 4.81845777,14.2711873 6.86550796,15.0838678 L6.86550796,15.0838678 L6.86550796,15.0844064 C9.80548348,13.3136353 11.7647491,11.7706732 13.4940514,10.4086659 L13.4940514,10.4086659 C13.6189963,7.6027907 13.4956671,5.33062424 13.3653366,2.92543452 L13.3653366,2.92543452 C11.3473684,2.12406365 9.23730722,1.20421053 7.08308446,0.193880049 L7.08308446,0.193880049 C4.74090575,2.02227662 2.7347858,3.38051408 0.61126071,4.81791922" id="Fill-51" fill="url(#linearGradient-51)" mask="url(#mask-50)"></path>
                    </g>
                    <g id="Group-56" transform="translate(28.004896, 47.024529)">
                        <mask id="mask-53" fill="white">
                            <use xlink:href="#path-52"></use>
                        </mask>
                        <g id="Clip-55"></g>
                        <path d="M0.710893513,3.80866585 C0.641419829,6.38619339 0.466927785,7.7449694 0.298898409,9.05904529 L0.298898409,9.05904529 C2.07343941,9.89165239 3.81189718,10.6494002 5.47388005,11.3096701 L5.47388005,11.3096701 C5.48141983,11.3102081 7.24411261,10.9267564 12.3787026,8.87324357 L12.3787026,8.87324357 C13.0459731,6.9075153 13.330869,5.04895961 13.6066095,3.25072215 L13.6066095,3.25072215 C11.5784088,2.44504284 9.45703794,1.52088127 7.29150551,0.504626683 L7.29150551,0.504626683 C4.74359853,1.89948592 2.78433293,2.82687882 0.710893513,3.80866585" id="Fill-54" fill="url(#linearGradient-54)" mask="url(#mask-53)"></path>
                    </g>
                </g>
            </g>
        </g>
    </g>
</svg>