<?xml version="1.0" encoding="UTF-8"?>
<svg width="16px" height="16px" viewBox="0 0 16 16" version="1.1" xmlns="http://www.w3.org/2000/svg" xmlns:xlink="http://www.w3.org/1999/xlink">
    <title>4DBAA66C-E293-46DE-A925-5C8722353467</title>
    <g id="Page-1" stroke="none" stroke-width="1" fill="none" fill-rule="evenodd">
        <g id="Desktop-HD" transform="translate(-90.000000, -2789.000000)" fill="#CCCCCC" fill-rule="nonzero">
            <g id="pie" transform="translate(0.000000, 2773.000000)">
                <g id="ico-github" transform="translate(90.000000, 16.000000)">
                    <path d="M14.9268537,4.0842742 C14.2114715,2.8278161 13.2411013,1.83307648 12.0154875,1.09983093 C10.7896914,0.366547977 9.45148742,0 7.99992703,0 C6.54854907,0 5.20990728,0.366660174 3.98436652,1.09983093 C2.75864334,1.83303908 1.78830955,2.8278161 1.07292736,4.0842742 C0.357654613,5.3406949 0,6.71271603 0,8.20030019 C0,9.98722625 0.508589749,11.5940759 1.52602464,13.0212607 C2.54335007,14.4485576 3.85758393,15.4361914 5.46861675,15.9842743 C5.65614554,16.019953 5.79496792,15.9948582 5.88522983,15.9096258 C5.97552822,15.8242812 6.02062269,15.7173947 6.02062269,15.5894152 C6.02062269,15.5680604 6.01883497,15.3759415 6.01536897,15.0128343 C6.01179352,14.649727 6.01011524,14.3329571 6.01011524,14.0626743 L5.7705235,14.1051596 C5.61776416,14.1338447 5.42505461,14.1459993 5.19239487,14.1425586 C4.95984458,14.1392301 4.71842863,14.1142476 4.46847537,14.067798 C4.21841266,14.0217597 3.98582589,13.9149855 3.77053262,13.7476996 C3.55534881,13.5804137 3.40258947,13.3614423 3.31229107,13.0911221 L3.20812868,12.8454104 C3.13869925,12.681827 3.02939258,12.5001051 2.88006275,12.3009178 C2.73073292,12.1015435 2.57972482,11.9663834 2.42696547,11.895213 L2.35403356,11.841695 C2.3054366,11.8061285 2.26034213,11.7632318 2.21864069,11.7134537 C2.17697573,11.6636756 2.14578174,11.61386 2.12494926,11.5639697 C2.1040803,11.514042 2.12137381,11.4730901 2.17701222,11.4409643 C2.23265062,11.4088385 2.33320108,11.3932431 2.47910139,11.3932431 L2.68735321,11.4251445 C2.82624856,11.45368 2.99805266,11.5389124 3.20298441,11.6813653 C3.40780671,11.823706 3.57618129,12.0087565 3.70814464,12.2364418 C3.86794544,12.5283787 4.06047256,12.7508282 4.28627328,12.9039025 C4.51189157,13.0569767 4.73937056,13.133383 4.96849133,13.133383 C5.19761211,13.133383 5.39550241,13.115581 5.5622352,13.0801641 C5.72878558,13.0445603 5.88504741,12.9910422 6.03094772,12.9199093 C6.09344516,12.4427723 6.26360747,12.0762244 6.54128871,11.8200035 C6.14550811,11.7773686 5.78967771,11.7131545 5.47361508,11.6277725 C5.15773488,11.5422783 4.83131074,11.4035278 4.49456157,11.2111472 C4.15762999,11.0190283 3.87812453,10.7804599 3.65597224,10.4958532 C3.43378346,10.2110969 3.25143543,9.83725611 3.10918353,9.3746674 C2.96685866,8.9118917 2.89567799,8.37805782 2.89567799,7.77301617 C2.89567799,6.91152932 3.17003917,6.17843337 3.71865209,5.57331692 C3.46165739,4.92564037 3.48591938,4.19957544 3.79151104,3.39519692 C3.99290382,3.33105757 4.29156348,3.37919013 4.68734409,3.53929541 C5.08319766,3.6994755 5.37302814,3.83669257 5.55712742,3.95046044 C5.74122669,4.06419092 5.88873231,4.16056824 5.99986318,4.23873223 C6.64581595,4.05371919 7.31241877,3.96119397 7.99985406,3.96119397 C8.68728936,3.96119397 9.35403812,4.05371919 10.0000274,4.23873223 L10.3958444,3.98258622 C10.6665207,3.81167261 10.9861588,3.65504544 11.3539925,3.5126673 C11.7220451,3.37036396 12.0034842,3.33116976 12.198018,3.39530911 C12.5103957,4.19972504 12.5382332,4.92575257 12.2811655,5.57342912 C12.8297419,6.17854556 13.1042126,6.91182851 13.1042126,7.77312837 C13.1042126,8.37817002 13.0327765,8.91368685 12.8906705,9.38001546 C12.7483822,9.84641887 12.5644653,10.2198857 12.338847,10.5012012 C12.1129733,10.7824794 11.8316801,11.0191779 11.494931,11.2112594 C11.1581088,11.4034904 10.8315753,11.5422409 10.515695,11.6277351 C10.1996689,11.7132293 9.8438385,11.7774808 9.4480579,11.8201905 C9.80903258,12.1404011 9.9895564,12.6458491 9.9895564,13.3363102 L9.9895564,15.589116 C9.9895564,15.7170956 10.0329726,15.8239446 10.119878,15.9093266 C10.2066739,15.994559 10.343745,16.0196538 10.5312738,15.9839377 C12.1425255,15.4359296 13.4567594,14.4482584 14.4740483,13.0209615 C15.4912278,11.5937768 16,9.98692706 16,8.200001 C15.9996352,6.71260384 15.6417981,5.3406949 14.9268537,4.0842742 Z" id="Shape"></path>
                </g>
            </g>
        </g>
    </g>
</svg>